<?xml version="1.0" encoding="UTF-8" standalone="no"?>
<svg
   xmlns:dc="http://purl.org/dc/elements/1.1/"
   xmlns:cc="http://creativecommons.org/ns#"
   xmlns:rdf="http://www.w3.org/1999/02/22-rdf-syntax-ns#"
   xmlns:svg="http://www.w3.org/2000/svg"
   xmlns="http://www.w3.org/2000/svg"
   xmlns:sodipodi="http://sodipodi.sourceforge.net/DTD/sodipodi-0.dtd"
   xmlns:inkscape="http://www.inkscape.org/namespaces/inkscape"
   data-name="Layer 1"
   viewBox="0 0 100 100"
   x="0px"
   y="0px"
   version="1.1"
   id="svg3933"
   sodipodi:docname="reload.svg"
   width="100"
   height="100"
   inkscape:version="0.92.5 (2060ec1f9f, 2020-04-08)">
  <metadata
     id="metadata3939">
    <rdf:RDF>
      <cc:Work
         rdf:about="">
        <dc:format>image/svg+xml</dc:format>
        <dc:type
           rdf:resource="http://purl.org/dc/dcmitype/StillImage" />
        <dc:title>Artboard 29</dc:title>
      </cc:Work>
    </rdf:RDF>
  </metadata>
  <defs
     id="defs3937" />
  <sodipodi:namedview
     pagecolor="#ffffff"
     bordercolor="#666666"
     borderopacity="1"
     objecttolerance="10"
     gridtolerance="10"
     guidetolerance="10"
     inkscape:pageopacity="0"
     inkscape:pageshadow="2"
     inkscape:window-width="3776"
     inkscape:window-height="2107"
     id="namedview3935"
     showgrid="false"
     inkscape:zoom="5"
     inkscape:cx="-166.89619"
     inkscape:cy="134.5"
     inkscape:window-x="64"
     inkscape:window-y="0"
     inkscape:window-maximized="1"
     inkscape:current-layer="svg3933" />
  <title
     id="title3921">Artboard 29</title>
  <g
     id="g3927"
     transform="matrix(1.5540984,0,0,1.5540984,-28.481969,-26.927871)">
    <path
       d="m 57,23 v 20 h 8 V 32.93 a 22,22 0 0 1 -13,38 v 8 A 30,30 0 0 0 70.34,27 H 81 V 19 H 61 a 4,4 0 0 0 -4,4 z"
       id="path3923"
       inkscape:connector-curvature="0" />
    <path
       d="m 20,80 h 20 a 4,4 0 0 0 4,-4 V 56 H 36 V 66 A 22,22 0 0 1 49,27 V 19 A 30,30 0 0 0 30.78,72 H 20 Z"
       id="path3925"
       inkscape:connector-curvature="0" />
  </g>
</svg>
